<svg xmlns="http://www.w3.org/2000/svg" viewBox="0 0 825.6 825.6"><defs><style>.a{fill:#060528;}.b{fill:#383c7a;}.c{fill:#fff;}</style></defs><rect class="a" width="825.6" height="825.6"/><path class="b" d="M594.47,464.91h-.05v0c-81.22,27-147.09,86.56-181.33,162.88l-.2.53a.08.08,0,1,1-.1,0h-.05C378.53,551.8,312.55,492,231.13,465v0h.05v0l78.87-116.15v0L412.84,197.08,515.62,348.7v0Z"/><path class="c" d="M594.44,464.9,482.09,440,412.86,628.36a.2.2,0,0,0-.06.17.34.34,0,0,0,0-.17L343.51,440,231.16,464.9,310,348.71,412.8,197.07,515.61,348.71Z"/></svg>