<svg xmlns="http://www.w3.org/2000/svg" viewBox="0 0 1922.64 825.6"><defs><style>.a{fill:#383c7a;}.b{fill:#fff;}</style></defs><path class="a" d="M379,628.33h0C344.74,551.76,278.77,492,197.35,464.92v-.05h.05L309.73,440Z"/><path class="a" d="M560.66,464.87h0v.05c-81.22,27-147.09,86.57-181.33,162.89l-.2.52a.18.18,0,0,0-.05.15.25.25,0,0,0,0-.08.11.11,0,0,1,0-.07L448.3,440Z"/><path class="b" d="M560.66,464.87,448.3,440,379.07,628.33a.11.11,0,0,0,0,.07s0,0,0-.07h0L309.73,440,197.4,464.86h0l78.87-116.16v0L379,197.07,481.82,348.68Z"/><path class="b" d="M379,628.33s0,0,0,.07a.18.18,0,0,0,0,.1.32.32,0,0,0,0-.17Z"/><polygon class="b" points="379.04 197.07 276.27 348.67 276.27 348.69 197.4 464.85 197.4 464.86 197.37 464.87 276.24 348.68 379.02 197.04 379.04 197.07"/><path class="b" d="M622.9,524.22,719.77,274l59.39-8.66L880.87,524.22H813.38l-16.47-49.3-92.62,4.4-15,44.9Zm98.63-96.51L780.2,424l-28.86-85.54Z"/><path class="b" d="M1036.53,329.29v66.44a53.41,53.41,0,0,0-13.4-3.05,57.06,57.06,0,0,0-6-.31c-14.29,0-26.53,4.82-35.25,13.09-8.93,8.41-17,20.45-17,34.6v84.16H905V333.09l58.83-9.33V352a95.76,95.76,0,0,1,62.43-23.27A99.44,99.44,0,0,1,1036.53,329.29Z"/><path class="b" d="M1194.73,329.29v66.44a53.51,53.51,0,0,0-13.4-3.05,57.06,57.06,0,0,0-6-.31c-14.29,0-26.53,4.82-35.25,13.09-8.93,8.41-17,20.45-17,34.6v84.16h-59.88V333.09l58.84-9.33V352a95.76,95.76,0,0,1,62.43-23.27A99.44,99.44,0,0,1,1194.73,329.29Z"/><path class="b" d="M1319,523.89c-58.41,0-105.94-44.33-105.94-99.74s47.53-99.74,105.94-99.74c58.78,0,106,44.7,106,99.74S1377.75,523.89,1319,523.89Zm0-52.46c26.86,0,45.72-19.58,45.72-47.28s-18.86-47.66-45.72-47.66-45.71,19.95-45.71,47.66S1292.13,471.43,1319,471.43Z"/><path class="b" d="M1552.44,359.05l45.16-5.9L1627,436.81l34-110.81,76.79-10.68-76,209.58h-53.12l-33.48-87.19-25.77,86.48h-52.55l-66.54-187.7,68.27-9,28,108.05Z"/></svg>