<svg xmlns="http://www.w3.org/2000/svg" viewBox="0 0 825.6 825.6"><defs><style>.a{fill:#383c7a;}.b{fill:#fff;}</style></defs><path class="a" d="M412.78,628.36h0C378.53,551.79,312.56,492,231.14,465v-.05h.05L343.52,440Z"/><path class="a" d="M594.45,464.9h0V465c-81.22,27-147.09,86.57-181.33,162.89l-.2.52a.18.18,0,0,0-.05.15.25.25,0,0,0,0-.08.11.11,0,0,1,0-.07L482.09,440Z"/><path class="b" d="M594.45,464.9,482.09,440,412.86,628.36a.11.11,0,0,0,0,.07s0,0,0-.07h0L343.52,440,231.19,464.89h0l78.87-116.16v0L412.83,197.1,515.61,348.71Z"/><path class="b" d="M412.79,628.36s0,0,0,.07a.18.18,0,0,0,0,.1.32.32,0,0,0,0-.17Z"/><polygon class="b" points="412.83 197.1 310.06 348.7 310.06 348.73 231.19 464.88 231.19 464.89 231.16 464.9 310.03 348.71 412.81 197.07 412.83 197.1"/></svg>