<svg xmlns="http://www.w3.org/2000/svg" xmlns:xlink="http://www.w3.org/1999/xlink" viewBox="0 0 154.44 183.39"><defs><style>.a{opacity:0.25;}.b{opacity:0.15;}.c{fill:url(#a);}.d{fill:#b3b3b3;}</style><linearGradient id="a" x1="77.22" y1="177.52" x2="77.22" y2="88.04" gradientUnits="userSpaceOnUse"><stop offset="0" stop-color="#909090" stop-opacity="0"/><stop offset="0.5" stop-color="#313131" stop-opacity="0.74"/><stop offset="1" stop-color="#101010"/></linearGradient></defs><g class="a"><g class="b"><path class="c" d="M154.44,113.84h0v0A129.09,129.09,0,0,0,77.34,183.1l-.08.23a.07.07,0,0,0,0,.06.07.07,0,0,0,0-.06h0A129.13,129.13,0,0,0,0,113.87v0H0L33.55,64.46h0L77.24,0l43.69,64.45h0Z"/></g><path class="d" d="M154.43,113.85l-47.75-10.57-29.43,80a.11.11,0,0,0,0,.07.08.08,0,0,0,0-.07l-29.43-80L0,113.85,33.53,64.46h0L77.23,0l43.7,64.45h0Z"/></g></svg>