<svg xmlns="http://www.w3.org/2000/svg" xmlns:xlink="http://www.w3.org/1999/xlink" viewBox="0 0 1200 500"><defs><style>.a{isolation:isolate;}.b{fill:#0d0a36;}.c{fill:url(#a);}.d{fill:#fff;}.e{fill:url(#b);}.f{mix-blend-mode:multiply;fill:url(#c);}</style><linearGradient id="a" x1="221.63" y1="385.63" x2="221.63" y2="246.61" gradientUnits="userSpaceOnUse"><stop offset="0" stop-color="#8086ed" stop-opacity="0"/><stop offset="0.07" stop-color="#8086ed" stop-opacity="0.06"/><stop offset="0.26" stop-color="#8086ed" stop-opacity="0.22"/><stop offset="0.45" stop-color="#8086ed" stop-opacity="0.34"/><stop offset="0.64" stop-color="#8086ed" stop-opacity="0.43"/><stop offset="0.82" stop-color="#8086ed" stop-opacity="0.48"/><stop offset="1" stop-color="#8086ed" stop-opacity="0.5"/></linearGradient><linearGradient id="b" x1="281.61" y1="394.76" x2="281.61" y2="109.82" gradientUnits="userSpaceOnUse"><stop offset="0.23" stop-color="#fff"/><stop offset="0.48" stop-color="#f8f8f9"/><stop offset="0.84" stop-color="#e5e5e7"/><stop offset="1" stop-color="#dadade"/></linearGradient><linearGradient id="c" x1="281.61" y1="394.76" x2="281.61" y2="109.82" gradientUnits="userSpaceOnUse"><stop offset="0.53" stop-color="#fff" stop-opacity="0"/><stop offset="0.62" stop-color="#fff" stop-opacity="0.01"/><stop offset="0.69" stop-color="#fdfdfd" stop-opacity="0.05"/><stop offset="0.75" stop-color="#fafafb" stop-opacity="0.12"/><stop offset="0.8" stop-color="#f7f7f8" stop-opacity="0.22"/><stop offset="0.85" stop-color="#f2f2f3" stop-opacity="0.35"/><stop offset="0.9" stop-color="#ececee" stop-opacity="0.51"/><stop offset="0.94" stop-color="#e5e5e8" stop-opacity="0.69"/><stop offset="0.98" stop-color="#dedee1" stop-opacity="0.9"/><stop offset="1" stop-color="#dadade"/></linearGradient></defs><g class="a"><rect class="b" width="1200" height="500"/><path class="c" d="M341.61,286.7h0v0c-53.65,17.84-97.15,57.17-119.76,107.58l-.14.34a.05.05,0,1,1-.06,0h0C199,344.09,155.42,304.61,101.64,286.74v0h0L153.77,210v0l67.88-100.13L289.54,210v0Z"/><path class="d" d="M341.59,286.71l-74.2-16.43L221.66,394.66a.16.16,0,0,0,0,.09.1.1,0,0,0,0-.09L175.87,270.28l-74.22,16.43L153.75,210h0l67.89-100.14L289.51,210h0Z"/><path class="e" d="M341.59,286.7l-74.2-16.42L221.67,394.66a.11.11,0,0,0,0,.1V109.82L289.52,210v0Z"/><path class="f" d="M341.59,286.7l-74.2-16.42L221.67,394.66a.11.11,0,0,0,0,.1V109.82L289.52,210v0Z"/><path class="d" d="M380.93,322,443,161.67l38-5.54L546.2,322H503L492.42,290.4l-59.34,2.82L423.47,322Zm63.19-61.83,37.59-2.38L463.22,203Z"/><path class="d" d="M645.93,197.1v42.57a34,34,0,0,0-8.58-2,38,38,0,0,0-3.88-.2c-9.15,0-17,3.09-22.58,8.39S600,259,600,268.07V322H561.66V199.54l37.7-6v18.1a61.36,61.36,0,0,1,40-14.9A64.84,64.84,0,0,1,645.93,197.1Z"/><path class="d" d="M747.29,197.1v42.57a34.2,34.2,0,0,0-8.59-2,37.83,37.83,0,0,0-3.87-.2c-9.15,0-17,3.09-22.58,8.39s-10.87,13.1-10.87,22.17V322H663V199.54l37.7-6v18.1a61.38,61.38,0,0,1,40-14.9A65.14,65.14,0,0,1,747.29,197.1Z"/><path class="d" d="M826.88,321.77c-37.42,0-67.87-28.4-67.87-63.9S789.46,194,826.88,194c37.66,0,67.88,28.64,67.88,63.9S864.54,321.77,826.88,321.77Zm0-33.6c17.21,0,29.29-12.55,29.29-30.3s-12.08-30.53-29.29-30.53-29.28,12.78-29.28,30.53S809.69,288.17,826.88,288.17Z"/><path class="d" d="M976.46,216.16l28.93-3.77,18.82,53.6L1046,195l49.2-6.84L1046.5,322.42h-34L991,266.56,974.51,322H940.84L898.21,201.71,942,196l17.94,69.23Z"/></g></svg>