<svg xmlns="http://www.w3.org/2000/svg" xmlns:xlink="http://www.w3.org/1999/xlink" viewBox="0 0 1200 500"><defs><style>.a{isolation:isolate;}.b{fill:#0d0a36;}.c{fill:url(#a);}.d{fill:#8086ed;}.e{mix-blend-mode:multiply;fill:url(#b);}.f{fill:url(#c);}</style><linearGradient id="a" x1="221.62" y1="385.63" x2="221.62" y2="246.62" gradientUnits="userSpaceOnUse"><stop offset="0" stop-color="#8086ed" stop-opacity="0"/><stop offset="0.07" stop-color="#8086ed" stop-opacity="0.06"/><stop offset="0.26" stop-color="#8086ed" stop-opacity="0.22"/><stop offset="0.45" stop-color="#8086ed" stop-opacity="0.34"/><stop offset="0.64" stop-color="#8086ed" stop-opacity="0.43"/><stop offset="0.82" stop-color="#8086ed" stop-opacity="0.48"/><stop offset="1" stop-color="#8086ed" stop-opacity="0.5"/></linearGradient><linearGradient id="b" x1="281.6" y1="394.76" x2="281.6" y2="109.82" gradientUnits="userSpaceOnUse"><stop offset="0.23" stop-color="#fff"/><stop offset="0.48" stop-color="#f8f8f9"/><stop offset="0.84" stop-color="#e5e5e7"/><stop offset="1" stop-color="#dadade"/></linearGradient><linearGradient id="c" x1="281.6" y1="394.76" x2="281.6" y2="109.82" gradientUnits="userSpaceOnUse"><stop offset="0.53" stop-color="#fff" stop-opacity="0"/><stop offset="0.62" stop-color="#fdfeff" stop-opacity="0.01"/><stop offset="0.68" stop-color="#f9f9fe" stop-opacity="0.05"/><stop offset="0.74" stop-color="#f0f1fd" stop-opacity="0.12"/><stop offset="0.79" stop-color="#e5e6fb" stop-opacity="0.21"/><stop offset="0.84" stop-color="#d5d7f9" stop-opacity="0.33"/><stop offset="0.89" stop-color="#c3c6f6" stop-opacity="0.48"/><stop offset="0.93" stop-color="#acb0f3" stop-opacity="0.65"/><stop offset="0.97" stop-color="#9499f0" stop-opacity="0.85"/><stop offset="1" stop-color="#8086ed"/></linearGradient></defs><g class="a"><rect class="b" width="1200" height="500"/><path class="c" d="M341.6,286.7h0v0c-53.64,17.84-97.15,57.17-119.76,107.57l-.13.35a.11.11,0,0,0,0,.1.13.13,0,0,0,0-.1h0c-22.6-50.57-66.17-90.05-119.94-107.92v0h0L153.76,210h0l67.88-100.14L289.53,210h0Z"/><path class="d" d="M341.57,286.69l-74.18-16.4L221.65,394.65a.26.26,0,0,0,0,.11.18.18,0,0,0,0-.11L175.87,270.29l-74.21,16.4L153.75,210v0l67.88-100.13L289.51,210v0Z"/><path class="e" d="M341.58,286.7l-74.2-16.42L221.66,394.66a.13.13,0,0,0,0,.1V109.82L289.51,210h0Z"/><path class="f" d="M341.58,286.7l-74.2-16.42L221.66,394.66a.13.13,0,0,0,0,.1V109.82L289.51,210h0Z"/><path class="d" d="M382.37,321.94l62.07-160.32,38.05-5.54,65.16,165.86H504.41l-10.55-31.59-59.34,2.82-9.61,28.77Zm63.19-61.83,37.59-2.38-18.49-54.81Z"/><path class="d" d="M647.38,197.05v42.57a34.2,34.2,0,0,0-8.59-2,38,38,0,0,0-3.87-.19c-9.15,0-17,3.08-22.58,8.38S601.47,259,601.47,268v53.92H563.1V199.49l37.7-6v18.1a61.38,61.38,0,0,1,40-14.9A65.14,65.14,0,0,1,647.38,197.05Z"/><path class="d" d="M748.73,197.05v42.57a34.1,34.1,0,0,0-8.59-2,37.71,37.71,0,0,0-3.87-.19c-9.15,0-17,3.08-22.58,8.38S702.82,259,702.82,268v53.92H664.46V199.49l37.69-6v18.1a61.38,61.38,0,0,1,40-14.9A65,65,0,0,1,748.73,197.05Z"/><path class="d" d="M828.33,321.73c-37.43,0-67.88-28.4-67.88-63.9s30.45-63.9,67.88-63.9c37.66,0,67.87,28.63,67.87,63.9S866,321.73,828.33,321.73Zm0-33.61c17.2,0,29.29-12.54,29.29-30.29s-12.09-30.54-29.29-30.54S799,240.08,799,257.83,811.13,288.12,828.33,288.12Z"/><path class="d" d="M977.9,216.12l28.94-3.78,18.81,53.6,21.76-71,49.2-6.84-48.67,134.27h-34l-21.44-55.86L976,321.92H942.29L899.66,201.67l43.73-5.76,17.94,69.23Z"/></g></svg>