<svg xmlns="http://www.w3.org/2000/svg" xmlns:xlink="http://www.w3.org/1999/xlink" viewBox="0 0 1200 500"><defs><style>.a{fill:#fff;}.b{fill:url(#a);}.c{fill:#0d0a36;}.d{fill:url(#b);}</style><linearGradient id="a" x1="221.63" y1="387.71" x2="221.63" y2="247.65" gradientUnits="userSpaceOnUse"><stop offset="0" stop-color="#fff" stop-opacity="0"/><stop offset="0.08" stop-color="#edeefc" stop-opacity="0.14"/><stop offset="0.21" stop-color="#d0d2f8" stop-opacity="0.37"/><stop offset="0.35" stop-color="#b8bbf5" stop-opacity="0.56"/><stop offset="0.48" stop-color="#a4a8f2" stop-opacity="0.72"/><stop offset="0.61" stop-color="#9499f0" stop-opacity="0.84"/><stop offset="0.74" stop-color="#898eee" stop-opacity="0.93"/><stop offset="0.87" stop-color="#8288ed" stop-opacity="0.98"/><stop offset="1" stop-color="#8086ed"/></linearGradient><linearGradient id="b" x1="282.08" y1="396.91" x2="282.08" y2="109.82" gradientUnits="userSpaceOnUse"><stop offset="0.53" stop-color="#fff" stop-opacity="0"/><stop offset="0.62" stop-color="#fff" stop-opacity="0.01"/><stop offset="0.69" stop-color="#fdfdfd" stop-opacity="0.05"/><stop offset="0.75" stop-color="#fafafb" stop-opacity="0.12"/><stop offset="0.8" stop-color="#f7f7f8" stop-opacity="0.22"/><stop offset="0.85" stop-color="#f2f2f3" stop-opacity="0.35"/><stop offset="0.9" stop-color="#ececee" stop-opacity="0.51"/><stop offset="0.94" stop-color="#e5e5e8" stop-opacity="0.69"/><stop offset="0.98" stop-color="#dedee1" stop-opacity="0.9"/><stop offset="1" stop-color="#dadade"/></linearGradient></defs><rect class="a" width="1200" height="500"/><path class="b" d="M342.52,288h0v0c-54.05,18-97.88,57.61-120.66,108.39l-.14.35a.05.05,0,1,1-.06,0h0c-22.76-50.95-66.67-90.73-120.85-108.74v0h0v0l52.48-77.29v0l68.4-100.89,68.4,100.89v0Z"/><path class="c" d="M342.5,288.05l-74.75-16.56L221.67,396.82a0,0,0,1,1-.06,0L175.54,271.49l-74.78,16.56,52.49-77.33,68.39-100.89L290,210.72Z"/><path class="d" d="M342.51,288l-74.77-16.55L221.68,396.81a.12.12,0,0,0,0,.1V109.82L290,210.71v0Z"/><path class="c" d="M380.93,321.94,443,161.62l38-5.54L546.2,321.94H503l-10.55-31.59-59.34,2.82-9.61,28.77Zm63.19-61.83,37.59-2.38-18.49-54.81Z"/><path class="c" d="M645.93,197.05v42.57a34,34,0,0,0-8.58-2,38,38,0,0,0-3.88-.19c-9.15,0-17,3.08-22.58,8.38S600,259,600,268v53.92H561.66V199.49l37.7-6v18.1a61.36,61.36,0,0,1,40-14.9A64.84,64.84,0,0,1,645.93,197.05Z"/><path class="c" d="M747.29,197.05v42.57a34.2,34.2,0,0,0-8.59-2,37.85,37.85,0,0,0-3.87-.19c-9.15,0-17,3.08-22.58,8.38S701.38,259,701.38,268v53.92H663V199.49l37.7-6v18.1a61.38,61.38,0,0,1,40-14.9A65.14,65.14,0,0,1,747.29,197.05Z"/><path class="c" d="M826.88,321.73c-37.42,0-67.87-28.4-67.87-63.9s30.45-63.9,67.87-63.9c37.66,0,67.88,28.63,67.88,63.9S864.54,321.73,826.88,321.73Zm0-33.61c17.21,0,29.29-12.54,29.29-30.29s-12.08-30.54-29.29-30.54-29.28,12.79-29.28,30.54S809.69,288.12,826.88,288.12Z"/><path class="c" d="M976.46,216.12l28.93-3.78,18.82,53.6,21.76-71,49.2-6.84L1046.5,322.37h-34L991,266.51l-16.51,55.41H940.84L898.21,201.67,942,195.91l17.94,69.23Z"/></svg>