<svg xmlns="http://www.w3.org/2000/svg" xmlns:xlink="http://www.w3.org/1999/xlink" viewBox="0 0 1200 500"><defs><style>.a{fill:#8086ed;}.b{fill:url(#a);}.c{fill:#fff;}.d{opacity:0.62;fill:url(#b);}</style><linearGradient id="a" x1="221.63" y1="385.63" x2="221.63" y2="246.61" gradientUnits="userSpaceOnUse"><stop offset="0" stop-color="#8086ed" stop-opacity="0"/><stop offset="0.17" stop-color="#5c5fb4" stop-opacity="0.31"/><stop offset="0.46" stop-color="#30306e" stop-opacity="0.69"/><stop offset="0.73" stop-color="#161444" stop-opacity="0.92"/><stop offset="1" stop-color="#0d0a36"/></linearGradient><linearGradient id="b" x1="281.61" y1="394.76" x2="281.61" y2="109.82" gradientUnits="userSpaceOnUse"><stop offset="0.46" stop-color="#fff"/><stop offset="0.54" stop-color="#f8f8fe"/><stop offset="0.65" stop-color="#e4e6fb"/><stop offset="0.78" stop-color="#c5c7f7"/><stop offset="0.93" stop-color="#989df0"/><stop offset="1" stop-color="#8086ed"/></linearGradient></defs><rect class="a" width="1200" height="500"/><path class="b" d="M341.61,286.7h0v0c-53.65,17.84-97.15,57.17-119.76,107.58l-.14.34a.05.05,0,1,1-.06,0h0C199,344.09,155.42,304.61,101.64,286.74v0h0L153.77,210v0l67.88-100.13L289.54,210v0Z"/><path class="c" d="M341.58,286.71l-74.19-16.43L221.67,394.66a.12.12,0,0,0,0,.09.1.1,0,0,0,0-.09L175.86,270.28l-74.19,16.43L153.74,210h0l67.9-100.14L289.53,210h0Z"/><path class="d" d="M341.58,286.7l-74.2-16.42L221.66,394.66a.13.13,0,0,0,0,.1V109.82L289.51,210v0Z"/><path class="c" d="M382.37,322l62.07-160.32,38.05-5.54L547.65,322H504.41L493.86,290.4l-59.34,2.82L424.91,322Zm63.19-61.83,37.59-2.38L464.66,203Z"/><path class="c" d="M647.38,197.1v42.57a34.2,34.2,0,0,0-8.59-2,38,38,0,0,0-3.87-.2c-9.15,0-17,3.09-22.58,8.39s-10.87,13.1-10.87,22.17V322H563.1V199.54l37.7-6v18.1a61.38,61.38,0,0,1,40-14.9A65.14,65.14,0,0,1,647.38,197.1Z"/><path class="c" d="M748.73,197.1v42.57a34.1,34.1,0,0,0-8.59-2,37.68,37.68,0,0,0-3.87-.2c-9.15,0-17,3.09-22.58,8.39s-10.87,13.1-10.87,22.17V322H664.46V199.54l37.69-6v18.1a61.38,61.38,0,0,1,40-14.9A65,65,0,0,1,748.73,197.1Z"/><path class="c" d="M828.33,321.77c-37.43,0-67.88-28.4-67.88-63.9S790.9,194,828.33,194c37.66,0,67.87,28.64,67.87,63.9S866,321.77,828.33,321.77Zm0-33.6c17.2,0,29.29-12.55,29.29-30.3s-12.09-30.53-29.29-30.53S799,240.12,799,257.87,811.13,288.17,828.33,288.17Z"/><path class="c" d="M977.9,216.16l28.94-3.77,18.81,53.6,21.76-71,49.2-6.84-48.67,134.27h-34l-21.44-55.86L976,322H942.29L899.66,201.71,943.39,196l17.94,69.23Z"/></svg>