<svg xmlns="http://www.w3.org/2000/svg" xmlns:xlink="http://www.w3.org/1999/xlink" viewBox="0 0 500 500"><defs><style>.a{fill:#8086ed;}.b{fill:url(#a);}.c{fill:#0d0a36;}.d{fill:url(#b);}</style><linearGradient id="a" x1="249.99" y1="384.35" x2="249.99" y2="244.28" gradientUnits="userSpaceOnUse"><stop offset="0" stop-color="#fff" stop-opacity="0"/><stop offset="0.08" stop-color="#edeefc" stop-opacity="0.14"/><stop offset="0.21" stop-color="#d0d2f8" stop-opacity="0.37"/><stop offset="0.35" stop-color="#b8bbf5" stop-opacity="0.56"/><stop offset="0.48" stop-color="#a4a8f2" stop-opacity="0.72"/><stop offset="0.61" stop-color="#9499f0" stop-opacity="0.84"/><stop offset="0.74" stop-color="#898eee" stop-opacity="0.93"/><stop offset="0.87" stop-color="#8288ed" stop-opacity="0.98"/><stop offset="1" stop-color="#8086ed"/></linearGradient><linearGradient id="b" x1="310.43" y1="393.55" x2="310.43" y2="106.45" gradientUnits="userSpaceOnUse"><stop offset="0.53" stop-color="#fff" stop-opacity="0"/><stop offset="0.62" stop-color="#fff" stop-opacity="0.01"/><stop offset="0.69" stop-color="#fdfdfd" stop-opacity="0.05"/><stop offset="0.75" stop-color="#fafafb" stop-opacity="0.12"/><stop offset="0.8" stop-color="#f7f7f8" stop-opacity="0.22"/><stop offset="0.85" stop-color="#f2f2f3" stop-opacity="0.35"/><stop offset="0.9" stop-color="#ececee" stop-opacity="0.51"/><stop offset="0.94" stop-color="#e5e5e8" stop-opacity="0.69"/><stop offset="0.98" stop-color="#dedee1" stop-opacity="0.9"/><stop offset="1" stop-color="#dadade"/></linearGradient></defs><rect class="a" width="500" height="500"/><path class="b" d="M370.88,284.67h0v0c-54.05,18-97.88,57.6-120.67,108.39l-.13.35a.12.12,0,0,0,0,.1.1.1,0,0,0,0-.1h0c-22.77-51-66.67-90.73-120.85-108.74v0h0l52.48-77.3v0L250,106.45l68.4,100.89v0Z"/><path class="c" d="M370.85,284.68l-74.74-16.56L250,393.45a0,0,0,1,1-.06,0L203.89,268.12l-74.77,16.56,52.49-77.33L250,106.46l68.39,100.89Z"/><path class="d" d="M370.87,284.67,296.1,268.13,250,393.45a.12.12,0,0,0,0,.1V106.45l68.4,100.89v0Z"/></svg>