<svg xmlns="http://www.w3.org/2000/svg" xmlns:xlink="http://www.w3.org/1999/xlink" viewBox="0 0 500 500"><defs><style>.a{isolation:isolate;}.b{fill:#0d0a36;}.c{fill:url(#a);}.d{fill:#fff;}.e{fill:url(#b);}.f{mix-blend-mode:multiply;fill:url(#c);}</style><linearGradient id="a" x1="249.99" y1="383.34" x2="249.99" y2="244.32" gradientUnits="userSpaceOnUse"><stop offset="0" stop-color="#8086ed" stop-opacity="0"/><stop offset="0.07" stop-color="#8086ed" stop-opacity="0.06"/><stop offset="0.26" stop-color="#8086ed" stop-opacity="0.22"/><stop offset="0.45" stop-color="#8086ed" stop-opacity="0.34"/><stop offset="0.64" stop-color="#8086ed" stop-opacity="0.43"/><stop offset="0.82" stop-color="#8086ed" stop-opacity="0.48"/><stop offset="1" stop-color="#8086ed" stop-opacity="0.5"/></linearGradient><linearGradient id="b" x1="309.97" y1="392.47" x2="309.97" y2="107.52" gradientUnits="userSpaceOnUse"><stop offset="0.23" stop-color="#fff"/><stop offset="0.48" stop-color="#f8f8f9"/><stop offset="0.84" stop-color="#e5e5e7"/><stop offset="1" stop-color="#dadade"/></linearGradient><linearGradient id="c" x1="309.97" y1="392.47" x2="309.97" y2="107.52" gradientUnits="userSpaceOnUse"><stop offset="0.53" stop-color="#fff" stop-opacity="0"/><stop offset="0.62" stop-color="#fff" stop-opacity="0.01"/><stop offset="0.69" stop-color="#fdfdfd" stop-opacity="0.05"/><stop offset="0.75" stop-color="#fafafb" stop-opacity="0.12"/><stop offset="0.8" stop-color="#f7f7f8" stop-opacity="0.22"/><stop offset="0.85" stop-color="#f2f2f3" stop-opacity="0.35"/><stop offset="0.9" stop-color="#ececee" stop-opacity="0.51"/><stop offset="0.94" stop-color="#e5e5e8" stop-opacity="0.69"/><stop offset="0.98" stop-color="#dedee1" stop-opacity="0.9"/><stop offset="1" stop-color="#dadade"/></linearGradient></defs><g class="a"><rect class="b" x="-0.01" width="500" height="500"/><path class="c" d="M370,284.41h0v0C316.29,302.28,272.79,341.62,250.18,392l-.14.35a.05.05,0,1,1-.06,0h0C227.35,341.8,183.78,302.32,130,284.44v0h0v0l52.09-76.71v0L250,107.52,317.9,207.66v0Z"/><path class="d" d="M370,284.41,295.75,268,250,392.36a.22.22,0,0,0,0,.1.13.13,0,0,0,0-.1L204.23,268,130,284.41l52.1-76.73v0L250,107.53l67.87,100.13v0Z"/><path class="e" d="M370,284.41,295.75,268,250,392.37a.1.1,0,0,0,0,.1v-285l67.89,100.14v0Z"/><path class="f" d="M370,284.41,295.75,268,250,392.37a.1.1,0,0,0,0,.1v-285l67.89,100.14v0Z"/></g></svg>