<svg xmlns="http://www.w3.org/2000/svg" xmlns:xlink="http://www.w3.org/1999/xlink" viewBox="0 0 500 500"><defs><style>.a{isolation:isolate;}.b{fill:#fff;}.c{fill:url(#a);}.d{fill:#8086ed;}.e{mix-blend-mode:multiply;fill:url(#b);}.f{fill:url(#c);}</style><linearGradient id="a" x1="250" y1="383.34" x2="250" y2="244.33" gradientUnits="userSpaceOnUse"><stop offset="0" stop-color="#8086ed" stop-opacity="0"/><stop offset="0.07" stop-color="#8086ed" stop-opacity="0.06"/><stop offset="0.26" stop-color="#8086ed" stop-opacity="0.22"/><stop offset="0.45" stop-color="#8086ed" stop-opacity="0.34"/><stop offset="0.64" stop-color="#8086ed" stop-opacity="0.43"/><stop offset="0.82" stop-color="#8086ed" stop-opacity="0.48"/><stop offset="1" stop-color="#8086ed" stop-opacity="0.5"/></linearGradient><linearGradient id="b" x1="309.99" y1="392.47" x2="309.99" y2="107.54" gradientUnits="userSpaceOnUse"><stop offset="0.23" stop-color="#fff"/><stop offset="0.48" stop-color="#f8f8f9"/><stop offset="0.84" stop-color="#e5e5e7"/><stop offset="1" stop-color="#dadade"/></linearGradient><linearGradient id="c" x1="309.99" y1="392.47" x2="309.99" y2="107.54" gradientUnits="userSpaceOnUse"><stop offset="0.53" stop-color="#fff" stop-opacity="0"/><stop offset="0.62" stop-color="#fdfeff" stop-opacity="0.01"/><stop offset="0.68" stop-color="#f9f9fe" stop-opacity="0.05"/><stop offset="0.74" stop-color="#f0f1fd" stop-opacity="0.12"/><stop offset="0.79" stop-color="#e5e6fb" stop-opacity="0.21"/><stop offset="0.84" stop-color="#d5d7f9" stop-opacity="0.33"/><stop offset="0.89" stop-color="#c3c6f6" stop-opacity="0.48"/><stop offset="0.93" stop-color="#acb0f3" stop-opacity="0.65"/><stop offset="0.97" stop-color="#9499f0" stop-opacity="0.85"/><stop offset="1" stop-color="#8086ed"/></linearGradient></defs><g class="a"><rect class="b" width="500" height="500"/><path class="c" d="M370,284.42h0v0C316.31,302.29,272.8,341.62,250.19,392l-.13.35a.11.11,0,0,0,0,.1.13.13,0,0,0,0-.1h0C227.36,341.8,183.79,302.32,130,284.45v0h0v0l52.09-76.71v0L250,107.54l67.89,100.13v0Z"/><path class="d" d="M370,284.4,295.77,268,250,392.36a.06.06,0,1,1-.06,0L204.25,268,130,284.4l52.09-76.71v0L250,107.53l67.88,100.13v0Z"/><path class="e" d="M370,284.42,295.76,268,250,392.37a.13.13,0,0,0,0,.1V107.54l67.88,100.13v0Z"/><path class="f" d="M370,284.42,295.76,268,250,392.37a.13.13,0,0,0,0,.1V107.54l67.88,100.13v0Z"/></g></svg>